#N canvas 974 141 805 444 10;
#X obj 47 10 ctlin;
#X floatatom 47 210 5 0 0 0 - - -, f 5;
#X obj 47 130 pow 2;
#X floatatom 47 155 5 0 0 0 - - -, f 5;
#X obj 47 267 netsend;
#X msg 168 250 connect 192.168.44.123 55001;
#X obj 47 103 spigot;
#X obj 80 75 == 7;
#X obj 126 75 spigot;
#X obj 159 42 == 90;
#X obj 47 181 + 200;
#X obj 329 158 loadbang;
#X obj 329 186 del 2000;
#X msg 47 237 send pedal \$1;
#X obj 126 111 == 127;
#X msg 126 133 send mute \$1;
#X obj 64 319 print;
#X connect 0 0 6 0;
#X connect 0 0 8 0;
#X connect 0 1 7 0;
#X connect 0 1 9 0;
#X connect 1 0 13 0;
#X connect 2 0 3 0;
#X connect 3 0 10 0;
#X connect 4 0 16 0;
#X connect 5 0 4 0;
#X connect 6 0 2 0;
#X connect 7 0 6 1;
#X connect 8 0 14 0;
#X connect 9 0 8 1;
#X connect 10 0 1 0;
#X connect 11 0 12 0;
#X connect 13 0 4 0;
#X connect 13 0 5 0;
#X connect 14 0 15 0;
#X connect 15 0 4 0;
#X connect 15 0 5 0;
